<?xml version="1.0" encoding="UTF-8"?><svg id="Layer_1" xmlns="http://www.w3.org/2000/svg" xmlns:xlink="http://www.w3.org/1999/xlink" viewBox="0 0 121.89 121.89"><defs><style>.cls-1{clip-path:url(#clippath);}.cls-2,.cls-3,.cls-4,.cls-5,.cls-6,.cls-7,.cls-8{stroke-width:0px;}.cls-2,.cls-9{fill:none;}.cls-10{clip-path:url(#clippath-1);}.cls-3{fill:#f6f6f7;}.cls-4{fill:#0e8ccd;}.cls-5{fill:#232b57;}.cls-6{fill:#1268a7;}.cls-7{fill:#b3def5;}.cls-8{fill:#e53012;}.cls-9{stroke:#fffeff;stroke-miterlimit:33.89;stroke-width:1.13px;}</style><clipPath id="clippath"><rect class="cls-2" x="49.49" y="68.75" width="9.78" height="5.36"/></clipPath><clipPath id="clippath-1"><rect class="cls-2" x="76.79" y="68.88" width="9.78" height="5.36"/></clipPath></defs><path class="cls-6" d="M50.41,32.27c-12.43,5.28-20.25,15.63-20.25,28.93,0,17,13.78,30.78,30.78,30.78s30.78-13.78,30.78-30.78c0-20.44-18.99-28.56-18.99-28.56,0,0-4.15-1.72-6.47-3.27,0,0-2.93-1.79-8.04-8.38,0,0,.12,7.49-7.82,11.28"/><path class="cls-3" d="M57.86,86.03c-1.08-.75-.82-3.14,2.11-1.43,0,0,6.24,4.58,16.11-.92.77-.43,1.71,1.08-.73,2.46,0,0-9.98,5.11-17.49-.11Z"/><path class="cls-9" d="M57.86,86.03c-1.08-.75-.82-3.14,2.11-1.43,0,0,6.24,4.58,16.11-.92.77-.43,1.71,1.08-.73,2.46,0,0-9.98,5.11-17.49-.11Z"/><path class="cls-3" d="M70.59,78.43c3.63.43,2.38,2.17,3.36,2.44,1.98.55,1.13-1.62,1.13-1.62-1.47-2.93-4-2.75-4-2.75-3.97-.61-6.93,3.17-6.93,3.17-.73,1.62.29,1.7.67,1.53,1.92-.89,3.09-3.09,5.77-2.78"/><path class="cls-9" d="M70.59,78.43c3.63.43,2.38,2.17,3.36,2.44,1.98.55,1.13-1.62,1.13-1.62-1.47-2.93-4-2.75-4-2.75-3.97-.61-6.93,3.17-6.93,3.17-.73,1.62.29,1.7.67,1.53,1.92-.89,3.09-3.09,5.77-2.78Z"/><path class="cls-4" d="M34.19,76.68s11.04,9.13,37.89-11.21c0,0,13.49-8.47,13.08-22.99,0,0-4.37-6.27-11.73-9.51-1.05-.46-10.25-5.48-15.22-11.78,0,0-.9,18.27-24.3,25.49,0,0-5.9,8.7-2.68,22.83,0,0,2.06,5.73,2.96,7.17"/><path class="cls-3" d="M51.7,80.08s-9.16.24-8.06-9.52c0,0,1.91-10.99,14.77-8.55,0,0,2.81.61,8.06,4.64,0,0,3.46,2.67,5.37,2.62,0,0,1.48.14,4.56-1.81,0,0,6.28-4.84,8.47-4.7.05,0,4.43-.48,4.43,6.57,0,0,.08,7.77-5.78,10.38,0,0-1.55.53-3.22-1.22,0,0-4.8-5.45-7.16-6.35,0,0-1.36-.53-3.17.12,0,0-1.18.12-6.02,3.34,0,0-8.14,5.09-12.25,4.48Z"/><path class="cls-9" d="M51.7,80.08s-9.16.24-8.06-9.52c0,0,1.91-10.99,14.77-8.55,0,0,2.81.61,8.06,4.64,0,0,3.46,2.67,5.37,2.62,0,0,1.48.14,4.56-1.81,0,0,6.28-4.84,8.47-4.7.05,0,4.43-.48,4.43,6.57,0,0,.08,7.77-5.78,10.38,0,0-1.55.53-3.22-1.22,0,0-4.8-5.45-7.16-6.35,0,0-1.36-.53-3.17.12,0,0-1.18.12-6.02,3.34,0,0-8.14,5.09-12.25,4.48Z"/><path class="cls-4" d="M56.54,45.04c5.93-8.49,1.67-24.09,1.67-24.09-.52,8.46-7.66,11.26-7.66,11.26-12.79,5.52-16.64,14.23-16.64,14.23,2.74,3.89,10.01,16.67,22.63-1.39"/><path class="cls-7" d="M58.22,20.95s.77,7.12-3.1,9.44c0,0-6.2,2.89-8.09,3.83,0,0-7.96,4.81-10.59,9.32,0,0-5.62,7.51,2.14,5.74,0,0,14.02-3.96,19.72-15.9,0,0,.34-1.01-.73-2.04,0,0,4.27-3.22.66-10.39"/><path class="cls-3" d="M58.22,20.95s.32,4.86-3.72,8.89c0,0-1.21,1.71-7.47,4.38,0,0-7.17,3.74-10.38,8.92,0,0-4.76,5.74,1.77,4.2,0,0,13.23-4.88,18.08-13.83,0,0,.66-.94-.34-1.91,0,0,4.75-3.71,2.07-10.66"/><g class="cls-1"><polygon class="cls-5" points="59.27 74.12 58.13 74.12 58.13 70.93 56.42 72.64 54.71 70.93 54.71 74.12 53.57 74.12 53.57 68.75 54.18 68.75 56.43 71.01 58.66 68.75 59.27 68.75 59.27 74.12"/><polygon class="cls-8" points="52.43 71.18 49.49 71.18 52.43 74.12 52.43 71.18"/></g><g class="cls-10"><polygon class="cls-5" points="86.57 74.24 85.43 74.24 85.43 71.06 83.72 72.76 82.01 71.06 82.01 74.24 80.87 74.24 80.87 68.88 81.48 68.88 83.73 71.14 85.96 68.88 86.57 68.88 86.57 74.24"/><polygon class="cls-8" points="79.73 71.3 76.79 71.3 79.73 74.24 79.73 71.3"/></g></svg>